<?xml version="1.0" encoding="UTF-8"?>
<svg id="_图层_1" xmlns="http://www.w3.org/2000/svg" version="1.1" viewBox="0 0 130 20">
  <!-- Generator: Adobe Illustrator 29.5.1, SVG Export Plug-In . SVG Version: 2.1.0 Build 141)  -->
  <defs>
    <style>
      .st0 {
        fill: #fafafa;
        stroke: #d5d5d5;
      }

      .st1 {
        stroke: #fafafa;
      }
    </style>
  </defs>
  <rect class="st0" x="24.94" y="3.48" width="78.29" height="15.33" rx="2" ry="2"/>
  <rect class="st1" x="58.25" y="7.8" width=".46" height="4.6"/>
  <path class="st0" d="M70.14,3.95l-5.19-2.76h-1.73l-5.19,2.76"/>
  <g>
    <path d="M33.2,9.13v6.73h-1.28v-6.73h-3.13v-1.16h8.12v1.16h-3.71ZM33.09,11.25l.78-.86c1.03.73,1.91,1.41,2.66,2.03l-.81,1c-.78-.68-1.66-1.4-2.63-2.16Z"/>
    <path d="M39.66,13.96c.32-.08.61-.16.86-.23l.14.97c-.87.3-1.8.56-2.8.78l-.28-1.11c.32-.05.67-.11,1.03-.18v-2.22h-.79v-1.03h.79v-1.9h-.85v-1.03h2.76v1.03h-.87v1.9h.65v1.03h-.65v1.99ZM40.67,9.21l.77.08c-.05,1.21-.14,2.38-.28,3.51l-.78-.16c.14-.98.23-2.13.29-3.43ZM41.72,7.51h1.04c0,1.26,0,2.44,0,3.53,0,1.16-.1,2.09-.29,2.79-.21.76-.58,1.46-1.12,2.12l-.93-.66c.52-.6.87-1.21,1.05-1.82.17-.57.26-1.39.26-2.47v-3.5ZM44.96,14.47h1.1v1.03h-3.38v-1.03h1.2v-2.31h-.85v-1.02h.85v-2.07h-.88v-1.04h2.92v1.04h-.95v2.07h.86v1.02h-.86v2.31Z"/>
    <path d="M48.4,14.38h-.53v.72h-.92v-6.97h2.3v6.73h-.86v-.49ZM48.4,13.42v-4.34h-.53v4.34h.53ZM51.02,12.45v2.27c0,.35-.08.61-.23.78-.14.17-.37.26-.67.29-.19,0-.4,0-.63,0l-.23-1.06c.11.01.25.02.41.03.14,0,.23-.03.28-.09.06-.07.09-.18.09-.33v-1.53c-.19.07-.38.13-.57.19l-.22-1.11c.2-.05.46-.13.78-.22v-1.67h-.6v-.98h.6v-1.53h.96v1.53h.53v.98h-.53v1.37c.22-.07.41-.14.58-.22l.12,1c-.16.07-.39.17-.69.31ZM54.01,14.57h1.04v1h-3.6v-1h1.66c.33-1.75.56-3.13.7-4.12l.97.22c-.24,1.37-.5,2.67-.77,3.9ZM53.9,8.98h1.02v1h-3.15v-1h1.05c-.09-.43-.2-.9-.34-1.4l1.06-.12c.15.55.27,1.05.36,1.52ZM51.81,10.63l.9-.11c.14.87.31,1.95.5,3.25l-.92.21c-.13-1.06-.29-2.18-.48-3.35Z"/>
    <path d="M57.6,13.49c.22,0,.41.08.56.22.15.14.23.33.23.55s-.08.39-.23.54c-.15.15-.34.23-.56.23s-.4-.08-.55-.23c-.15-.15-.23-.33-.23-.54s.07-.4.22-.55c.14-.15.33-.22.56-.22ZM57.04,12.85v-4.47h1.13v4.47h-1.13Z"/>
    <path d="M66.41,14.38h-.55v.72h-.9v-7.06h2.32v6.89h-.87v-.56ZM66.41,13.42v-4.43h-.55v4.43h.55ZM67.74,14.12l.86.22c-.16.49-.35,1-.58,1.56l-.92-.29c.25-.47.46-.96.64-1.48ZM69.71,11.23h-1.97v-3.46h4.94v3.46h-1.98v.5h2v.83h-2v.5h2.27v.84h-5.5v-.84h2.24v-.5h-2v-.83h2v-.5ZM69.73,10.44v-1.88h-1.1v1.88h1.1ZM68.69,8.97l.61-.13c.13.36.25.75.36,1.16l-.66.17c-.07-.36-.17-.76-.32-1.21ZM68.85,14.33l.86-.07c.07.37.16.84.25,1.41l-.9.13c-.04-.34-.11-.83-.21-1.47ZM70.2,14.36l.86-.12c.14.44.28.89.41,1.33l-.89.18c-.1-.42-.23-.88-.39-1.39ZM71.77,10.44v-1.88h-1.11v1.88h1.11ZM71.1,8.84l.62.13c-.12.47-.25.89-.39,1.23l-.64-.19c.16-.38.3-.77.41-1.18ZM71.57,14.3l.89-.19c.25.45.46.93.66,1.43l-.9.27c-.19-.45-.4-.95-.65-1.51Z"/>
    <path d="M75.41,14.38h-.55v.72h-.9v-7.06h2.32v6.89h-.87v-.56ZM75.41,13.42v-4.43h-.55v4.43h.55ZM76.74,14.12l.86.22c-.16.49-.35,1-.58,1.56l-.92-.29c.25-.47.46-.96.64-1.48ZM78.71,11.23h-1.97v-3.46h4.94v3.46h-1.98v.5h2v.83h-2v.5h2.27v.84h-5.5v-.84h2.24v-.5h-2v-.83h2v-.5ZM78.73,10.44v-1.88h-1.1v1.88h1.1ZM77.69,8.97l.61-.13c.13.36.25.75.36,1.16l-.66.17c-.07-.36-.17-.76-.32-1.21ZM77.85,14.33l.86-.07c.07.37.16.84.25,1.41l-.9.13c-.04-.34-.11-.83-.21-1.47ZM79.2,14.36l.86-.12c.14.44.28.89.41,1.33l-.89.18c-.1-.42-.23-.88-.39-1.39ZM80.77,10.44v-1.88h-1.11v1.88h1.11ZM80.1,8.84l.62.13c-.12.47-.25.89-.39,1.23l-.64-.19c.16-.38.3-.77.41-1.18ZM80.57,14.3l.89-.19c.25.45.46.93.66,1.43l-.9.27c-.19-.45-.4-.95-.65-1.51Z"/>
    <path d="M84.41,14.38h-.55v.72h-.9v-7.06h2.32v6.89h-.87v-.56ZM84.41,13.42v-4.43h-.55v4.43h.55ZM85.74,14.12l.86.22c-.16.49-.35,1-.58,1.56l-.92-.29c.25-.47.46-.96.64-1.48ZM87.71,11.23h-1.97v-3.46h4.94v3.46h-1.98v.5h2v.83h-2v.5h2.27v.84h-5.5v-.84h2.24v-.5h-2v-.83h2v-.5ZM87.73,10.44v-1.88h-1.1v1.88h1.1ZM86.69,8.97l.61-.13c.13.36.25.75.36,1.16l-.66.17c-.07-.36-.17-.76-.32-1.21ZM86.85,14.33l.86-.07c.07.37.16.84.25,1.41l-.9.13c-.04-.34-.11-.83-.21-1.47ZM88.2,14.36l.86-.12c.14.44.28.89.41,1.33l-.89.18c-.1-.42-.23-.88-.39-1.39ZM89.77,10.44v-1.88h-1.11v1.88h1.11ZM89.1,8.84l.62.13c-.12.47-.25.89-.39,1.23l-.64-.19c.16-.38.3-.77.41-1.18ZM89.57,14.3l.89-.19c.25.45.46.93.66,1.43l-.9.27c-.19-.45-.4-.95-.65-1.51Z"/>
    <path d="M92.7,13.49c.22,0,.4.07.56.22.15.14.22.33.22.55s-.08.4-.23.55c-.15.15-.33.23-.55.23s-.4-.08-.55-.23c-.16-.15-.23-.33-.23-.55s.07-.4.22-.55c.14-.15.33-.22.56-.22Z"/>
    <path d="M95.4,13.49c.22,0,.4.07.56.22.15.14.22.33.22.55s-.08.4-.23.55c-.15.15-.33.23-.55.23s-.4-.08-.55-.23c-.16-.15-.23-.33-.23-.55s.07-.4.22-.55c.14-.15.33-.22.56-.22Z"/>
    <path d="M98.1,13.49c.22,0,.4.07.56.22.15.14.22.33.22.55s-.08.4-.23.55c-.15.15-.33.23-.55.23s-.4-.08-.55-.23c-.16-.15-.23-.33-.23-.55s.07-.4.22-.55c.14-.15.33-.22.56-.22Z"/>
  </g>
</svg>