<?xml version="1.0" encoding="UTF-8"?>
<svg id="_图层_1" data-name="图层_1" xmlns="http://www.w3.org/2000/svg" version="1.1" viewBox="0 0 130 20">
  <!-- Generator: Adobe Illustrator 29.5.1, SVG Export Plug-In . SVG Version: 2.1.0 Build 141)  -->
  <defs>
    <style>
      .st0 {
        isolation: isolate;
      }

      .st1 {
        fill: #333;
      }

      .st2 {
        fill: #fafafa;
        stroke: #d5d5d5;
      }

      .st3 {
        stroke: #fafafa;
      }
    </style>
  </defs>
  <rect class="st2" x="24.94" y="3.48" width="80.12" height="15.33" rx="2" ry="2"/>
  <rect class="st3" x="58.25" y="7.8" width=".46" height="4.6"/>
  <path class="st2" d="M71.05,3.95l-5.19-2.76h-1.73l-5.19,2.76"/>
  <g id="rlink" class="st0">
    <path class="st1" d="M30.9,7.85l1.34.38c-.46,1.76-1.02,3.38-1.68,4.87l-1.33-.5c.69-1.42,1.25-3.01,1.67-4.76ZM33.46,5.79h1.41v7.56c0,.58-.12.99-.35,1.23-.24.25-.66.39-1.25.43-.44.03-.9.02-1.38-.02l-.29-1.37c.41.04.8.06,1.17.05.25,0,.43-.05.54-.16.11-.11.16-.3.16-.57v-7.16ZM35.71,8.21l1.29-.38c.72,1.65,1.35,3.21,1.88,4.66l-1.31.55c-.55-1.61-1.17-3.22-1.86-4.82Z"/>
    <path class="st1" d="M42.65,12.33c.34.3.65.6.95.88l-.75,1.02c-.27-.27-.54-.54-.81-.81-.39.59-.92,1.18-1.58,1.78l-.91-.88c.71-.59,1.26-1.17,1.63-1.74-.43-.41-.87-.8-1.31-1.18.2-.75.39-1.65.58-2.69h-.77v-1.17h.95c.07-.59.14-1.2.2-1.84l1.2.14c-.07.5-.15,1.07-.24,1.7h1.61v1.11c-.05.75-.13,1.42-.25,2.02-.13.63-.29,1.19-.5,1.66ZM41.74,11.52c.14-.36.26-.78.35-1.26.09-.46.15-.97.19-1.55h-.7c-.14.8-.3,1.57-.48,2.31.21.17.42.34.63.51ZM48.07,10.95v4.12h-1.22v-4.12h-1.14c-.03,1-.16,1.81-.39,2.44-.22.61-.62,1.25-1.19,1.92l-1.05-.77c.52-.55.88-1.08,1.07-1.57.2-.51.32-1.19.34-2.02h-.99v-1.17h1v-2.36h-.78v-1.18h5.17v1.18h-.81v2.36h1.02v1.17h-1.02ZM46.84,9.78v-2.36h-1.13v2.36h1.13Z"/>
    <path class="st1" d="M55.02,13.45h4.32v1.29h-9.29v-1.29h3.53v-7.71h1.44v2.85h3.55v1.27h-3.55v3.58Z"/>
    <path class="st1" d="M62.54,13.04c.36-.09.69-.18.97-.26l.16,1.09c-.98.34-2.03.63-3.15.88l-.31-1.24c.36-.06.75-.13,1.15-.2v-2.5h-.89v-1.15h.89v-2.13h-.95v-1.15h3.11v1.15h-.98v2.13h.73v1.15h-.73v2.23ZM63.67,7.7l.87.09c-.05,1.36-.16,2.67-.31,3.94l-.88-.18c.15-1.1.26-2.39.32-3.85ZM64.86,5.79h1.16c0,1.42,0,2.74,0,3.96,0,1.3-.11,2.35-.32,3.14-.24.85-.66,1.64-1.26,2.39l-1.04-.74c.58-.67.97-1.36,1.18-2.04.19-.64.29-1.56.29-2.77v-3.93ZM68.5,13.61h1.23v1.15h-3.79v-1.15h1.35v-2.6h-.95v-1.14h.95v-2.33h-.99v-1.16h3.28v1.16h-1.07v2.33h.96v1.14h-.96v2.6Z"/>
    <path class="st1" d="M72.85,11.36v2.45c0,.44-.08.75-.25.95-.16.19-.44.3-.83.34-.28.03-.58.03-.92,0l-.23-1.22c.26.03.49.04.68.03.15,0,.26-.04.32-.11.05-.06.08-.17.08-.32v-1.7c-.3.09-.6.17-.91.25l-.27-1.23c.44-.09.83-.19,1.18-.28v-1.86h-.94v-1.14h.94v-1.77h1.15v1.77h.75v1.14h-.75v1.51c.27-.09.5-.18.7-.24l.2,1.07c-.26.11-.56.24-.9.37ZM76.14,11.44h1.19c0,.22-.01.44-.02.64,0,.2-.02.39-.06.6-.01.04-.03.07-.06.09-.03.03-.05.05-.08.08-.13.59-.45,1.06-.95,1.43-.52.38-1.32.71-2.4.99l-.58-.99c.93-.19,1.62-.41,2.05-.65.44-.25.71-.58.81-.98.06-.26.09-.66.09-1.2ZM73.46,12.23h6.52v.98h-6.52v-.98ZM78.55,7.46v.57h-1.15v-.57h-1.27v.57h-1.15v-.57h-1.33v-.96h1.33v-.78h1.15v.78h1.27v-.78h1.15v.78h1.39v.96h-1.39ZM79.47,11.71h-5.42v-3.47h5.42v3.47ZM78.31,9.58v-.47h-3.08v.47h3.08ZM78.31,10.82v-.48h-3.08v.48h3.08ZM76.28,12.85l.85-.34c.22.47.55.83,1,1.08.45.24,1.12.42,1.99.55l-.46,1.06c-.99-.2-1.74-.48-2.25-.83-.51-.36-.88-.86-1.13-1.52Z"/>
    <path class="st1" d="M83.81,5.67l1.33.24c-.86,1.46-1.98,2.66-3.36,3.62l-.88-.85c1.25-.88,2.22-1.89,2.9-3.01ZM81.02,13.75h9.3v1.12h-9.3v-1.12ZM82.11,8.37h1.24v4.7h-1.24v-4.7ZM87.45,8.37h1.91v4.7h-6.68v-1.06h2.44v-.81h-2.48v-.97h2.48v-.8h-2.4v-1.06h3.13l.84-.82h-3.35l.42-1.03h4.57v.97l-.89.88ZM88.12,10.24v-.8h-1.79v.8h1.79ZM88.12,12.02v-.81h-1.79v.81h1.79Z"/>
    <path class="st1" d="M98.83,12.09h-2.2v3.15h-1.39v-3.15h-2.19v.66h-1.34v-5.28h3.53v-1.76h1.39v1.76h3.54v5.26h-1.35v-.64ZM95.25,10.83v-2.11h-2.19v2.11h2.19ZM98.83,10.83v-2.11h-2.2v2.11h2.2Z"/>
  </g>
</svg>